<?xml version="1.0" standalone="no"?>
<!DOCTYPE svg PUBLIC "-//W3C//DTD SVG 20010904//EN"
 "http://www.w3.org/TR/2001/REC-SVG-20010904/DTD/svg10.dtd">
<svg version="1.0" xmlns="http://www.w3.org/2000/svg"
 width="900.000000pt" height="900.000000pt" viewBox="0 0 900.000000 900.000000"
 preserveAspectRatio="xMidYMid meet">
<metadata>
Created by potrace 1.10, written by Peter Selinger 2001-2011
</metadata>
<g transform="translate(0.000000,900.000000) scale(0.100000,-0.100000)"
fill="#000000" stroke="none">
<path d="M2320 7471 c-74 -11 -117 -45 -151 -121 -20 -43 -20 -46 -3 -100 9
-30 21 -62 25 -70 22 -41 49 -111 49 -127 0 -11 4 -23 8 -29 5 -5 19 -40 31
-79 12 -38 26 -79 31 -90 17 -37 42 -110 47 -138 3 -15 9 -30 14 -33 5 -3 9
-13 9 -22 0 -9 7 -30 15 -46 9 -16 20 -46 25 -65 4 -20 23 -74 40 -121 17 -47
42 -119 56 -160 14 -41 29 -82 33 -90 5 -9 12 -31 16 -50 4 -19 14 -44 21 -55
8 -11 14 -28 14 -37 0 -10 4 -26 9 -36 5 -9 19 -46 31 -82 12 -36 28 -77 36
-92 8 -14 14 -37 14 -50 0 -13 4 -28 9 -34 4 -5 19 -43 32 -84 12 -41 29 -84
36 -95 7 -11 13 -28 13 -37 0 -31 45 -92 91 -123 23 -17 54 -40 68 -53 13 -12
35 -25 48 -28 13 -4 23 -10 23 -15 0 -5 5 -9 11 -9 6 0 59 -28 118 -63 58 -34
122 -71 141 -81 19 -11 37 -22 40 -25 3 -4 30 -19 60 -34 30 -16 69 -37 85
-47 32 -20 77 -45 135 -76 19 -11 37 -22 40 -26 3 -4 17 -12 30 -17 14 -6 32
-15 40 -21 29 -18 195 -116 210 -123 8 -4 42 -23 75 -42 33 -19 70 -40 83 -45
12 -5 22 -16 22 -25 0 -9 9 -15 25 -15 14 0 47 -13 73 -30 27 -16 54 -30 61
-30 6 0 11 -4 11 -9 0 -5 12 -14 28 -20 15 -6 41 -20 58 -30 17 -10 62 -36
100 -56 l69 -38 140 11 c77 7 196 18 265 27 69 8 150 17 180 20 30 3 96 9 145
15 50 5 155 16 235 24 80 8 172 20 205 26 33 5 92 10 132 10 40 0 82 4 95 10
13 5 84 14 158 20 153 11 410 37 455 46 17 3 86 9 155 15 69 5 141 11 160 14
19 2 79 7 133 11 95 7 99 8 123 39 13 18 24 37 24 43 0 19 -67 82 -87 82 -12
0 -26 7 -33 15 -7 8 -22 15 -34 15 -11 0 -30 7 -40 15 -11 8 -29 15 -40 15
-12 0 -30 7 -40 15 -11 8 -30 15 -43 15 -13 0 -23 4 -23 10 0 5 -12 12 -27 16
-16 3 -41 12 -58 19 -79 35 -104 45 -118 45 -9 0 -28 6 -44 14 -48 25 -100 46
-115 46 -7 0 -22 7 -32 15 -11 8 -28 15 -37 15 -10 0 -30 6 -46 14 -51 27
-101 46 -116 46 -9 0 -18 4 -22 9 -3 5 -20 13 -37 17 -18 3 -39 10 -48 15 -33
18 -87 38 -118 44 -37 8 -40 30 -7 49 11 6 22 14 25 17 3 3 29 22 58 43 54 38
81 59 141 114 20 17 43 34 52 37 20 7 269 263 269 277 0 5 15 24 33 42 17 17
42 45 54 61 75 98 93 125 93 133 0 5 13 36 30 68 16 32 30 66 30 75 0 8 5 20
11 26 6 6 15 30 20 52 5 23 13 60 18 84 10 46 3 165 -10 173 -5 3 -9 21 -9 39
0 30 -32 110 -50 125 -3 3 -17 21 -30 40 -26 36 -98 110 -109 110 -3 0 -21 14
-40 30 -18 17 -38 30 -43 30 -5 0 -16 7 -24 15 -9 8 -24 15 -35 15 -11 0 -27
7 -35 15 -9 8 -26 15 -39 15 -13 0 -26 4 -29 9 -4 5 -25 12 -48 16 -22 4 -56
14 -74 21 -18 8 -48 14 -67 14 -18 0 -38 5 -43 10 -27 27 -565 40 -796 20 -65
-6 -133 -17 -151 -25 -19 -8 -37 -12 -40 -9 -11 11 -67 -8 -67 -22 0 -20 40
-27 90 -14 25 6 65 16 89 22 65 15 843 7 863 -9 8 -7 37 -16 64 -19 27 -4 54
-10 59 -14 6 -4 27 -10 47 -14 20 -4 50 -13 65 -21 15 -8 35 -15 43 -15 39 0
148 -70 220 -140 88 -86 130 -147 130 -187 0 -16 7 -41 15 -57 20 -37 19 -151
0 -206 -8 -23 -15 -53 -15 -65 0 -12 -13 -47 -30 -78 -16 -31 -30 -62 -30 -68
0 -6 -7 -17 -15 -25 -8 -9 -15 -24 -15 -35 0 -10 -4 -19 -8 -19 -5 0 -26 -26
-48 -57 -21 -31 -50 -69 -63 -83 -13 -14 -42 -47 -65 -73 -22 -27 -50 -59 -61
-71 -12 -12 -30 -33 -41 -47 -21 -26 -69 -69 -149 -134 -27 -22 -56 -47 -65
-55 -8 -8 -47 -40 -85 -70 -39 -30 -83 -68 -100 -85 -49 -52 -64 -56 -110 -32
-64 33 -74 37 -87 37 -7 0 -20 4 -27 9 -12 8 -11 13 10 30 13 11 30 20 37 21
12 0 162 98 192 126 8 8 37 33 65 56 27 24 74 66 105 94 30 28 68 62 85 75 63
51 144 139 195 214 19 27 41 56 48 63 6 7 12 18 12 23 0 6 11 25 24 42 13 18
27 42 30 54 4 11 13 27 21 33 8 7 15 27 15 44 0 17 7 40 15 50 21 28 21 220 0
260 -8 15 -15 34 -15 41 0 14 -22 41 -83 103 -44 45 -182 142 -203 142 -6 0
-25 7 -40 15 -16 8 -43 15 -59 15 -17 0 -36 5 -41 10 -6 6 -35 13 -65 17 -30
3 -57 11 -61 17 -5 8 -120 11 -377 11 -343 0 -370 -1 -389 -18 -16 -15 -25
-16 -40 -8 -24 13 -85 -5 -79 -23 6 -17 102 -19 129 -2 32 20 744 18 757 -2 4
-7 32 -15 62 -19 30 -3 57 -10 60 -15 3 -5 23 -11 45 -14 36 -5 85 -23 124
-46 8 -4 22 -11 30 -15 49 -21 180 -148 180 -175 0 -9 7 -24 16 -32 12 -13 15
-41 15 -137 1 -71 -4 -124 -9 -128 -6 -3 -14 -20 -18 -36 -12 -49 -88 -184
-133 -234 -11 -13 -21 -28 -21 -33 0 -9 -117 -135 -164 -177 -16 -14 -51 -47
-78 -73 -26 -27 -52 -48 -56 -48 -5 0 -33 -23 -63 -50 -30 -28 -65 -59 -79
-70 -77 -60 -160 -120 -164 -120 -3 0 -20 -13 -38 -30 -38 -35 -66 -38 -98
-10 -13 11 -33 20 -45 20 -11 0 -25 4 -30 9 -10 9 -71 34 -125 50 -74 22 -87
33 -104 86 -9 29 -16 74 -16 101 0 27 -6 76 -14 109 -8 33 -17 90 -21 127 -3
37 -11 70 -16 73 -5 4 -9 32 -9 63 -1 31 -7 75 -15 97 -8 22 -15 58 -15 80 0
22 -5 58 -11 80 -5 22 -16 74 -24 115 -23 125 -27 134 -49 152 -15 13 -40 18
-94 18 -40 0 -81 4 -91 9 -10 6 -81 15 -158 20 -162 13 -202 26 -225 73 -21
44 -66 166 -75 205 -5 19 -68 53 -101 53 -14 0 -42 63 -42 94 0 19 -32 90 -49
108 -9 10 -204 48 -248 48 -21 0 -44 5 -50 11 -6 6 -46 13 -89 15 -44 3 -88 9
-99 14 -20 9 -167 35 -280 50 -33 4 -78 13 -100 19 -22 6 -63 11 -90 11 -28 0
-55 4 -60 9 -6 6 -52 15 -104 21 -52 7 -105 16 -119 21 -13 5 -41 9 -63 9 -22
0 -48 4 -57 9 -9 5 -53 14 -97 20 -161 23 -240 36 -250 42 -5 4 -46 10 -90 13
-44 4 -93 8 -110 10 -16 2 -50 0 -75 -3z m195 -60 c6 -5 52 -14 102 -20 51 -6
104 -16 118 -21 15 -6 50 -10 79 -10 28 0 57 -5 62 -10 6 -6 42 -13 80 -16 38
-3 92 -12 119 -19 28 -8 77 -16 110 -18 33 -2 73 -9 88 -16 16 -6 50 -11 77
-11 27 0 51 -4 55 -9 3 -5 36 -12 73 -16 37 -3 96 -13 132 -20 36 -8 99 -19
140 -26 87 -13 140 -22 265 -44 50 -8 127 -21 172 -28 62 -9 86 -17 96 -32 18
-26 31 -111 18 -119 -5 -3 -40 1 -78 9 -37 9 -104 20 -148 26 -44 5 -89 14
-100 19 -11 5 -56 14 -100 21 -44 6 -118 18 -165 25 -47 8 -122 19 -167 24
-46 5 -91 13 -101 19 -10 5 -53 12 -95 15 -43 3 -82 8 -87 11 -5 3 -46 10 -91
16 -72 9 -84 8 -100 -7 -11 -9 -19 -21 -19 -25 0 -10 -430 -439 -440 -439 -4
0 -10 12 -13 28 -12 61 -29 118 -38 126 -5 6 -9 22 -9 37 0 15 -6 34 -14 41
-7 8 -17 29 -21 47 -4 18 -13 44 -21 59 -8 15 -14 36 -14 48 0 11 -5 25 -11
31 -5 5 -9 32 -7 59 l3 49 44 3 c23 2 73 -2 110 -8 36 -6 107 -18 156 -26 158
-27 304 -30 281 -7 -4 4 -33 10 -64 14 -31 4 -82 14 -112 23 -30 9 -78 16
-107 16 -28 0 -55 5 -58 10 -3 6 -35 10 -69 10 -44 0 -67 5 -76 15 -17 21 -56
19 -107 -6 l-43 -21 0 -66 c0 -62 31 -177 75 -277 7 -16 20 -52 29 -80 9 -27
23 -63 31 -80 33 -73 45 -104 45 -124 0 -12 6 -24 13 -27 7 -2 14 -19 14 -37
1 -18 8 -45 17 -62 9 -16 16 -39 16 -50 0 -11 7 -29 15 -39 8 -11 15 -30 15
-43 0 -19 15 -63 40 -113 4 -9 11 -31 15 -50 4 -19 14 -44 21 -55 8 -11 14
-27 14 -36 0 -9 7 -30 15 -45 8 -16 15 -39 15 -51 0 -12 4 -24 9 -27 5 -3 11
-16 14 -28 3 -13 17 -54 31 -93 15 -38 35 -96 46 -128 28 -85 50 -115 96 -137
40 -20 61 -20 773 -20 403 1 739 4 747 7 7 3 14 12 14 20 0 18 500 515 514
510 5 -2 10 -25 12 -53 3 -81 33 -283 45 -305 6 -12 9 -54 8 -97 -4 -80 9
-104 32 -61 15 28 7 160 -15 244 -9 32 -16 78 -16 101 0 24 -5 55 -11 71 -7
15 -22 92 -33 171 -12 78 -26 143 -31 142 -14 0 -18 -99 -5 -115 9 -11 -51
-76 -285 -309 l-296 -296 -89 0 c-49 0 -91 4 -94 9 -3 5 34 44 82 88 48 44
166 158 262 252 96 95 220 216 275 270 55 54 110 104 123 110 21 11 22 17 17
74 -3 34 -8 79 -11 100 l-6 37 45 0 c47 0 57 -9 57 -53 0 -11 4 -34 9 -51 6
-17 15 -62 21 -101 6 -38 17 -108 26 -155 8 -47 19 -119 24 -160 5 -41 14 -91
20 -110 5 -19 15 -69 20 -110 6 -41 15 -104 20 -140 5 -36 14 -80 21 -98 6
-18 9 -35 7 -37 -2 -2 -431 -7 -953 -10 -523 -4 -1071 -10 -1220 -14 -239 -7
-271 -6 -282 8 -7 9 -13 23 -13 31 0 8 -7 28 -15 43 -8 15 -17 43 -21 63 -3
19 -10 37 -15 40 -5 3 -9 13 -9 22 0 9 -6 28 -13 42 -7 14 -24 60 -37 103 -13
42 -28 77 -32 77 -4 0 -8 12 -8 28 0 15 -7 40 -15 56 -8 15 -15 36 -15 45 0 9
-6 25 -14 36 -7 11 -16 31 -19 45 -7 34 -35 111 -47 132 -6 10 -10 26 -10 35
-1 10 -9 36 -20 58 -11 22 -19 47 -20 56 0 9 -7 30 -15 45 -8 16 -15 37 -15
46 0 9 -4 20 -10 23 -5 3 -10 16 -10 28 0 12 -6 34 -14 48 -7 14 -16 39 -20
55 -4 16 -13 43 -20 59 -8 17 -19 48 -26 70 -7 22 -18 54 -25 70 -7 17 -22 62
-34 100 -23 74 -28 87 -55 148 -9 21 -16 43 -16 50 0 7 -7 25 -15 40 -22 42
-28 117 -13 147 7 13 29 35 47 47 30 20 46 23 135 23 56 0 106 -4 111 -9z
m717 -305 c-2 -10 -30 -46 -63 -80 -32 -33 -61 -68 -64 -77 -3 -9 -17 -21 -30
-27 -14 -6 -25 -16 -25 -21 0 -5 -21 -31 -47 -59 -81 -84 -249 -265 -283 -304
-40 -48 -60 -49 -60 -5 0 18 -7 42 -15 53 -8 10 -15 24 -15 29 0 6 111 123
248 261 l247 251 55 -1 c48 -1 55 -3 52 -20z m138 -17 c44 -13 190 -37 299
-49 46 -5 89 -14 95 -20 5 -5 40 -10 77 -10 37 0 82 -6 100 -14 19 -8 66 -17
104 -21 39 -4 75 -11 81 -16 6 -5 48 -10 95 -11 46 -1 87 -6 90 -11 3 -4 31
-11 61 -14 50 -5 59 -9 87 -46 20 -27 31 -52 31 -73 0 -19 6 -48 14 -66 8 -18
22 -50 30 -70 25 -57 54 -74 128 -77 35 -1 71 -4 82 -7 10 -4 37 -7 60 -9 75
-5 161 -18 178 -27 14 -7 17 -22 17 -86 l-1 -77 -91 -87 c-51 -48 -230 -223
-399 -390 l-308 -303 -567 1 c-612 1 -602 0 -650 54 -12 14 -23 37 -23 51 0
15 -7 40 -15 55 -8 16 -15 37 -15 46 0 9 -4 20 -10 23 -5 3 -10 16 -10 28 0
13 -6 31 -14 42 -7 11 -17 36 -21 55 -4 19 -14 44 -21 55 -8 11 -14 31 -14 45
0 14 -4 30 -9 35 -5 6 -21 45 -35 88 -15 43 -32 90 -38 105 -17 44 -25 64 -43
114 l-16 47 68 72 c37 40 97 102 131 138 35 36 67 71 70 78 4 6 39 45 77 85
39 41 113 120 165 176 52 56 101 102 110 102 8 0 31 -5 50 -11z m2020 -1634
c7 -8 21 -15 31 -15 10 0 20 -4 24 -9 3 -5 19 -12 36 -16 17 -4 42 -13 57 -21
15 -8 37 -14 49 -14 12 0 27 -9 33 -21 9 -15 18 -19 35 -15 14 4 39 -3 67 -18
25 -13 59 -27 76 -31 49 -10 36 -55 -16 -55 -14 0 -34 -12 -49 -30 -27 -33
-54 -38 -73 -15 -17 20 -70 18 -96 -3 -12 -10 -29 -32 -38 -49 -13 -27 -14
-35 -2 -57 35 -68 104 -87 151 -41 24 25 27 32 29 79 1 24 79 86 107 86 11 0
22 -7 25 -15 4 -8 11 -15 16 -15 11 0 66 -23 111 -46 16 -8 38 -14 50 -14 11
0 29 -7 39 -17 10 -9 32 -16 48 -16 16 0 31 -6 34 -14 3 -7 19 -13 35 -13 16
0 33 -5 36 -11 4 -5 18 -15 33 -20 15 -6 22 -13 16 -19 -13 -13 -120 -28 -258
-36 -67 -4 -131 -13 -145 -20 -15 -8 -58 -14 -101 -14 -46 0 -83 -5 -95 -13
-14 -9 -59 -14 -140 -16 -86 -1 -123 -5 -130 -15 -7 -9 -40 -14 -109 -15 -64
-1 -107 -6 -120 -14 -14 -9 -60 -15 -130 -16 -85 -2 -118 -7 -147 -22 -47 -24
-49 -24 -49 1 0 11 4 20 10 20 5 0 12 15 16 34 4 26 1 41 -12 59 -22 29 -68
57 -94 57 -28 0 -94 -66 -86 -86 8 -22 -21 -54 -48 -54 -12 0 -38 -9 -59 -20
-20 -11 -48 -20 -61 -20 -14 0 -28 -4 -31 -10 -3 -5 -14 -10 -23 -10 -9 0 -30
-7 -46 -15 -15 -8 -41 -15 -56 -15 -28 0 -85 24 -95 41 -4 5 -17 9 -30 9 -13
0 -30 7 -39 15 -8 8 -21 15 -29 15 -8 0 -20 7 -28 16 -7 9 -35 25 -61 37 -26
11 -48 24 -48 29 0 4 -8 8 -19 8 -10 0 -24 7 -31 15 -7 8 -24 21 -39 28 -88
46 -117 62 -121 68 -6 9 -110 68 -132 75 -10 4 -18 10 -18 15 0 5 -6 9 -13 9
-8 0 -32 13 -54 29 -22 16 -49 32 -61 35 -12 4 -22 11 -22 14 0 4 -17 16 -37
27 -41 21 -73 49 -73 63 0 5 136 10 307 11 168 1 311 5 317 8 6 4 96 8 201 10
584 7 755 15 755 34 0 14 -795 9 -955 -5 -116 -10 -143 -10 -156 1 -19 16 -73
17 -102 1 -12 -7 -47 -13 -77 -13 -296 -4 -307 -5 -331 -23 -20 -17 -21 -21
-8 -39 16 -24 105 -93 118 -93 5 0 16 -6 23 -13 17 -18 95 -64 131 -78 15 -6
27 -14 27 -19 0 -4 8 -10 18 -14 9 -3 31 -15 47 -26 17 -11 39 -24 50 -29 12
-5 63 -35 115 -66 52 -31 103 -61 115 -66 11 -5 43 -22 70 -38 87 -51 195
-101 220 -101 27 0 11 -25 -20 -30 -16 -3 -30 -11 -33 -17 -5 -16 74 -18 83
-3 3 6 16 10 28 10 12 0 33 6 48 13 34 18 121 31 194 28 33 -1 70 1 83 4 40
10 23 25 -28 25 -27 0 -50 5 -50 10 0 6 9 10 20 10 10 0 28 9 39 21 16 17 23
19 40 10 12 -7 21 -18 21 -26 0 -7 8 -16 18 -18 35 -9 208 0 238 13 18 7 42
10 58 6 32 -8 25 -26 -9 -26 -23 0 -45 -24 -45 -49 0 -12 103 -90 150 -113 29
-14 56 -16 155 -13 147 6 171 8 181 17 4 5 -60 7 -142 7 l-149 -2 -78 53 c-42
28 -75 56 -72 60 3 5 20 12 38 15 17 4 36 10 41 13 6 3 42 7 80 8 120 4 211
13 237 22 13 5 66 9 118 10 52 1 117 7 143 14 39 9 53 9 68 0 11 -7 26 -12 33
-12 8 0 32 -13 53 -28 21 -16 47 -31 57 -35 21 -8 22 -21 1 -41 -14 -15 -87
-22 -178 -19 -17 1 -35 -5 -40 -13 -8 -9 -38 -14 -96 -16 -96 -3 -112 -21 -24
-26 37 -2 81 4 126 18 38 11 73 18 79 14 6 -3 49 -3 95 1 81 7 85 8 100 37 15
28 14 31 -5 52 -12 13 -40 33 -64 45 -23 12 -49 25 -57 30 -43 23 -89 42 -120
48 l-35 7 40 7 c22 5 84 8 137 8 53 1 99 5 102 10 6 10 193 27 245 23 20 -2
40 3 51 13 11 10 23 14 28 11 15 -9 41 4 53 26 9 17 6 24 -17 44 -16 13 -37
23 -46 24 -9 0 -29 6 -45 14 -27 14 -141 60 -228 93 -22 8 -52 21 -67 29 -14
8 -38 14 -52 14 -33 0 -34 24 -2 45 23 15 28 15 68 -6 66 -34 77 -39 90 -39 7
-1 31 -9 53 -20 22 -11 46 -19 53 -20 7 0 20 -4 30 -9 37 -21 86 -41 96 -41 6
0 28 -9 49 -20 20 -11 45 -20 54 -20 10 0 27 -7 37 -15 11 -8 28 -15 37 -15
10 0 32 -8 51 -17 18 -9 45 -22 60 -30 14 -7 33 -13 41 -13 9 0 28 -6 44 -14
15 -8 48 -22 73 -32 25 -9 59 -22 75 -29 17 -7 53 -20 80 -30 28 -9 62 -23 77
-31 14 -8 33 -14 40 -14 25 0 103 -46 106 -61 5 -27 -41 -39 -188 -49 -240
-16 -393 -30 -437 -40 -23 -6 -63 -10 -89 -10 -26 0 -97 -7 -158 -15 -166 -22
-286 -34 -436 -45 -74 -5 -148 -14 -165 -19 -16 -5 -79 -13 -140 -16 -60 -4
-114 -11 -120 -15 -5 -4 -73 -10 -149 -14 -77 -4 -145 -10 -150 -15 -6 -5 -68
-11 -137 -14 -69 -2 -135 -10 -147 -16 -25 -13 -252 -15 -252 -2 0 5 -17 18
-37 29 -21 10 -65 34 -98 52 -101 56 -110 60 -121 60 -6 0 -16 11 -22 25 -9
20 -19 25 -47 25 -21 0 -38 6 -41 14 -3 8 -16 17 -30 20 -13 4 -24 11 -24 16
0 6 -5 10 -11 10 -6 0 -48 23 -94 50 -46 28 -88 50 -94 50 -6 0 -11 4 -11 8 0
4 -15 15 -32 23 -49 22 -122 63 -128 71 -3 4 -17 12 -30 17 -14 6 -32 15 -40
21 -56 37 -169 100 -179 100 -6 0 -11 5 -11 10 0 6 -5 10 -11 10 -9 0 -44 19
-199 110 -8 5 -33 19 -55 31 -22 11 -42 24 -45 28 -3 3 -31 20 -63 36 -104 54
-177 102 -177 116 0 5 255 9 568 10 312 1 671 5 797 8 127 4 429 8 671 9 382
2 443 0 454 -13z m271 -311 c13 -35 3 -63 -28 -75 -32 -12 -28 -13 -58 15 -25
24 -26 25 -10 55 13 26 22 31 51 31 28 0 36 -5 45 -26z m-868 -208 c9 -7 17
-26 17 -44 0 -24 -6 -32 -30 -41 -66 -22 -107 32 -60 79 23 23 47 25 73 6z
m846 -55 c7 -5 10 -14 7 -20 -8 -13 -149 -14 -211 -2 -36 7 -38 8 -15 14 14 4
63 8 110 10 47 2 87 4 90 5 3 1 11 -2 19 -7z m-358 -41 c22 0 39 -4 39 -9 0
-4 -37 -8 -82 -7 -60 1 -83 5 -86 15 -4 11 5 13 43 8 26 -4 65 -7 86 -7z"/>
<path d="M4585 5591 c-28 -6 -27 -7 19 -14 60 -9 318 -9 340 -1 9 3 13 10 10
15 -6 10 -324 10 -369 0z"/>
<path d="M4993 5583 c15 -2 37 -2 50 0 12 2 0 4 -28 4 -27 0 -38 -2 -22 -4z"/>
<path d="M3842 6893 c-12 -14 -19 -30 -16 -35 3 -4 -2 -23 -11 -42 -14 -29
-23 -35 -60 -41 -25 -3 -47 -10 -50 -15 -6 -10 -56 17 -99 55 -16 14 -38 25
-49 25 -31 0 -83 -40 -101 -77 -15 -31 -14 -35 4 -65 11 -18 25 -45 31 -60 6
-16 15 -28 20 -28 14 0 10 -33 -6 -54 -8 -11 -15 -27 -15 -37 0 -27 -25 -40
-84 -44 -31 -1 -62 -8 -70 -14 -16 -13 -27 -117 -16 -146 5 -11 30 -31 56 -44
27 -13 57 -28 66 -32 10 -5 23 -9 30 -9 14 0 30 -21 60 -80 20 -38 23 -70 8
-70 -5 0 -10 -7 -10 -15 0 -8 -9 -23 -20 -32 -35 -31 -24 -129 16 -139 13 -3
24 -10 24 -14 0 -4 13 -13 28 -19 31 -13 77 -6 102 14 29 24 73 32 109 20 43
-15 90 -71 91 -107 0 -16 13 -42 31 -63 35 -40 70 -45 122 -19 39 20 47 31 47
66 0 42 31 87 65 94 17 3 36 11 43 17 13 11 60 -10 90 -40 24 -23 50 -14 87
31 l36 45 -16 48 c-9 26 -23 54 -32 60 -15 12 -15 14 -1 30 9 10 18 31 20 48
2 21 16 39 48 63 46 36 78 98 60 116 -6 6 -10 19 -10 31 0 25 -18 45 -39 45
-32 1 -65 42 -91 113 -5 15 -14 27 -20 27 -18 0 -10 41 11 59 18 15 21 24 15
54 -4 20 -11 37 -16 37 -5 0 -11 8 -15 19 -3 10 -21 26 -39 36 -30 16 -40 17
-74 7 -44 -13 -96 -7 -113 14 -6 8 -16 14 -22 14 -16 0 -57 50 -57 70 0 31
-31 80 -60 95 -45 23 -83 19 -108 -12z m118 -43 c14 -8 19 -20 18 -47 -1 -29
5 -41 33 -64 19 -16 44 -29 56 -29 12 0 23 -5 25 -11 6 -18 78 -39 103 -29 31
12 65 1 92 -28 27 -30 28 -34 6 -79 -16 -34 -16 -38 0 -65 9 -16 17 -35 17
-43 0 -7 7 -18 15 -25 8 -7 15 -21 15 -31 0 -19 20 -42 59 -69 12 -8 29 -25
37 -38 14 -21 13 -26 -6 -57 -13 -20 -30 -35 -41 -35 -10 0 -19 -6 -19 -14 0
-7 -6 -19 -14 -25 -7 -6 -17 -30 -20 -53 -4 -23 -11 -47 -16 -53 -9 -11 9 -78
32 -115 24 -38 -43 -80 -72 -45 -7 8 -20 15 -29 15 -9 0 -22 5 -28 11 -9 9
-21 8 -46 -5 -19 -9 -42 -16 -51 -16 -34 0 -86 -70 -86 -115 0 -22 -37 -55
-62 -55 -18 0 -58 41 -58 61 0 10 -4 20 -9 23 -4 3 -11 19 -14 35 -4 21 -19
38 -44 54 -71 44 -138 50 -182 16 -37 -30 -84 -25 -115 12 -31 37 -32 49 -6
82 11 14 20 32 20 40 0 9 5 19 10 22 12 8 13 39 1 63 -49 101 -58 115 -81 123
-14 5 -37 16 -52 24 -14 8 -32 15 -40 15 -25 1 -58 38 -58 65 0 48 17 65 63
65 55 0 87 9 87 25 0 7 6 15 14 18 8 3 17 21 21 39 3 18 11 43 17 56 11 21 6
42 -23 92 -43 74 -42 71 -21 99 26 35 61 38 93 7 32 -30 96 -58 104 -46 3 4
24 11 48 15 49 8 107 57 107 90 0 12 3 25 7 28 10 11 72 8 93 -3z"/>
<path d="M3806 6701 c-3 -5 -17 -12 -32 -15 -26 -7 -38 -15 -77 -52 -50 -47
-75 -83 -82 -115 -4 -19 -12 -40 -19 -48 -15 -19 -15 -189 1 -199 7 -4 15 -23
18 -42 3 -19 10 -36 16 -38 5 -2 9 -10 9 -17 0 -27 99 -155 119 -155 5 0 16
-6 24 -14 22 -23 90 -56 114 -56 12 0 23 -5 25 -11 5 -14 121 -16 151 -2 12 6
43 20 68 31 67 32 116 90 154 186 20 51 20 203 0 230 -8 11 -15 32 -15 47 0
14 -7 32 -15 39 -8 7 -15 19 -15 26 0 8 -4 14 -9 14 -5 0 -13 10 -16 21 -10
30 -105 119 -128 119 -9 0 -20 7 -23 15 -4 8 -17 15 -29 15 -13 0 -30 7 -39
15 -11 11 -38 15 -105 15 -49 0 -92 -4 -95 -9z m180 -36 c10 -8 27 -15 36 -15
41 0 198 -141 198 -176 0 -6 7 -17 15 -24 8 -7 15 -25 15 -40 0 -15 7 -33 15
-40 32 -27 7 -222 -34 -263 -6 -6 -11 -16 -11 -22 0 -18 -51 -59 -108 -88 -85
-43 -175 -36 -277 20 -16 9 -36 23 -43 30 -7 7 -21 18 -30 25 -25 18 -82 94
-82 108 0 6 -7 18 -15 26 -8 9 -15 26 -15 39 0 13 -4 27 -10 30 -6 3 -10 48
-10 101 0 56 4 94 10 94 6 0 10 9 10 19 0 11 14 41 31 66 29 43 53 62 134 108
38 21 143 23 171 2z"/>
<path d="M3800 6596 c-45 -30 -63 -50 -94 -110 -22 -41 -26 -62 -26 -131 0
-61 4 -86 15 -95 8 -7 15 -21 15 -31 0 -31 84 -149 106 -149 4 0 29 -13 56
-30 42 -26 58 -30 123 -30 66 0 81 4 124 30 53 33 101 88 101 117 0 10 7 31
15 47 19 36 19 103 0 136 -8 14 -14 35 -15 48 0 23 -96 162 -111 162 -5 0 -28
14 -52 30 -42 28 -51 30 -133 29 -76 0 -94 -4 -124 -23z m204 -26 c6 -6 17
-10 26 -10 18 0 86 -61 122 -110 26 -36 51 -121 51 -175 0 -38 -24 -125 -35
-125 -4 0 -8 -5 -8 -11 0 -12 -41 -47 -78 -66 -14 -7 -51 -13 -83 -13 -46 0
-71 6 -116 31 -57 30 -63 35 -93 79 -8 12 -21 29 -28 36 -7 8 -16 30 -19 49
-3 20 -10 38 -14 41 -12 7 -12 121 0 128 4 3 11 18 14 33 7 33 66 103 87 103
8 0 24 8 35 16 15 12 33 14 75 9 30 -3 59 -10 64 -15z"/>
<path d="M5013 5410 c-58 -23 1 -54 88 -46 162 13 239 25 239 37 0 11 -10 12
-95 9 -38 -1 -77 -6 -86 -11 -10 -5 -23 -3 -35 6 -21 16 -77 18 -111 5z"/>
<path d="M5350 5380 c0 -6 8 -13 18 -16 9 -3 30 -12 45 -20 32 -16 97 -19 97
-4 0 5 -12 12 -27 15 -16 4 -40 13 -55 21 -30 16 -78 19 -78 4z"/>
<path d="M5550 5317 c-14 -6 -29 -17 -33 -24 -4 -7 -24 -20 -45 -29 -20 -10
-45 -24 -55 -33 -12 -10 -21 -12 -25 -5 -4 6 -24 19 -44 28 -35 17 -38 17 -65
0 -43 -27 -53 -44 -53 -89 0 -47 11 -65 57 -90 30 -17 33 -17 68 -1 20 10 39
25 42 34 2 9 8 26 13 37 5 11 11 28 14 38 3 9 16 22 28 27 13 6 37 19 53 30
17 11 37 23 45 27 8 4 20 13 25 20 8 10 23 6 71 -19 42 -21 67 -29 80 -24 17
7 17 9 -6 18 -46 19 -85 41 -93 55 -10 16 -43 16 -77 0z m-177 -129 c19 -22
23 -48 7 -48 -6 0 -22 -11 -35 -25 l-23 -26 -26 26 c-34 34 -35 82 -3 95 29
11 58 3 80 -22z"/>
<path d="M4880 7435 c-10 -27 -20 -31 -37 -14 -6 6 -26 9 -44 7 -31 -3 -34 -6
-37 -41 -2 -26 1 -39 12 -43 9 -3 16 -13 16 -21 0 -11 11 -13 42 -11 36 3 43
7 48 28 5 20 13 26 45 30 47 6 56 27 28 64 -24 33 -61 34 -73 1z m-40 -60 c14
-17 5 -35 -19 -35 -24 0 -30 8 -24 31 6 23 26 25 43 4z"/>
<path d="M4605 7431 c-3 -6 -3 -28 1 -50 6 -40 6 -41 -24 -41 -51 0 -97 -75
-53 -87 12 -3 21 -15 23 -32 3 -25 6 -26 63 -26 55 0 60 2 59 22 l0 22 27 -22
c41 -32 33 -51 -21 -55 -70 -4 -86 -10 -98 -37 -14 -30 -32 -25 -32 9 0 41
-29 56 -108 56 -39 0 -73 -4 -76 -8 -2 -4 -2 -36 1 -71 5 -55 11 -68 40 -97
31 -31 39 -34 93 -34 68 0 80 12 80 79 0 30 4 41 15 41 11 0 15 -12 15 -42 1
-45 12 -67 45 -86 17 -10 11 -11 -35 -12 -31 0 -61 -5 -67 -11 -15 -15 -5
-109 14 -127 7 -7 13 -26 13 -41 0 -18 12 -40 36 -65 l36 -37 101 3 102 3 -3
54 c-2 30 -9 63 -17 75 -8 11 -15 29 -15 40 0 10 -11 34 -25 52 -17 22 -21 34
-12 37 17 6 80 -4 92 -14 19 -18 55 -9 66 15 13 28 3 136 -12 136 -5 0 -14 11
-19 25 -7 19 -17 25 -38 25 -40 0 -47 11 -20 31 17 13 19 20 11 31 -6 7 -13
29 -15 48 -3 33 -6 35 -40 38 -40 3 -52 -12 -18 -23 28 -9 45 -42 29 -61 -15
-18 -39 -18 -68 2 -19 14 -22 22 -16 50 5 29 3 34 -14 34 -11 0 -24 -8 -30
-17 -8 -15 -10 -14 -17 11 -6 24 -2 32 26 54 27 21 31 29 26 55 -3 17 -11 36
-17 44 -13 15 -95 18 -104 4z m69 -37 c20 -8 21 -54 2 -54 -20 0 -39 27 -32
45 6 17 8 17 30 9z m-30 -126 c13 -25 14 -33 4 -40 -37 -23 -101 13 -91 51 4
16 13 21 38 21 28 0 36 -6 49 -32z m-143 -118 c10 -6 19 -16 19 -22 0 -6 7
-19 16 -29 12 -13 15 -28 10 -52 -6 -33 -8 -34 -46 -31 -22 1 -53 12 -70 24
-25 18 -30 28 -30 64 0 23 3 46 7 49 10 11 72 8 94 -3z m294 -39 c48 -11 91
-25 95 -32 12 -19 21 -92 13 -99 -4 -4 -36 -4 -71 0 -35 4 -71 6 -80 4 -9 -2
-37 6 -62 19 -40 20 -46 27 -52 66 -4 24 -5 48 -2 52 8 14 63 10 159 -10z
m-43 -218 c15 -15 28 -33 28 -40 0 -8 9 -34 21 -59 28 -62 23 -79 -21 -77 -62
3 -120 9 -124 14 -15 17 -67 127 -72 155 l-6 34 73 0 c66 0 76 -3 101 -27z"/>
<path d="M4310 7390 c-24 -24 -22 -54 11 -127 l19 -43 74 0 c54 0 75 4 79 14
9 22 -1 25 -56 19 -63 -6 -83 11 -89 72 -3 39 -2 40 30 43 40 4 69 -18 80 -62
13 -48 32 -44 32 6 0 61 -31 90 -104 96 -45 4 -57 1 -76 -18z"/>
<path d="M4950 7341 c-27 -5 -36 -11 -38 -29 -8 -52 80 -96 117 -59 6 6 29 12
49 12 36 0 37 1 37 40 0 38 -2 40 -32 43 -32 3 -52 -10 -83 -56 -11 -16 -21
-20 -38 -16 -34 9 -24 40 11 36 18 -2 27 2 27 12 0 20 -9 23 -50 17z"/>
<path d="M4941 7221 c-28 -7 -35 -20 -22 -40 7 -11 13 -10 34 3 37 25 77 12
77 -24 0 -15 -7 -33 -15 -40 -13 -11 -21 -8 -45 15 l-30 29 0 -35 c0 -30 5
-36 31 -46 25 -10 38 -9 66 2 34 14 35 16 28 57 -12 74 -52 99 -124 79z"/>
<path d="M5095 7196 c-19 -29 -11 -72 17 -87 10 -6 36 -9 56 -7 32 3 37 7 40
31 3 21 -5 35 -28 57 -39 36 -64 38 -85 6z m51 -52 c-4 -12 -10 -14 -17 -7 -5
5 -7 17 -3 27 4 12 10 14 17 7 5 -5 7 -17 3 -27z"/>
<path d="M2117 7183 c-13 -12 -7 -61 8 -77 8 -8 15 -23 15 -33 0 -10 6 -30 14
-45 8 -15 17 -40 21 -57 4 -17 11 -33 16 -36 5 -4 9 -16 9 -28 0 -13 6 -31 14
-42 7 -11 17 -35 21 -53 4 -18 13 -45 21 -60 8 -15 14 -35 14 -44 0 -9 4 -19
9 -22 5 -3 12 -22 15 -41 4 -19 11 -35 16 -35 6 0 10 -10 10 -22 0 -13 6 -34
13 -48 7 -14 23 -56 36 -95 13 -38 27 -74 31 -80 5 -5 11 -27 15 -48 4 -20 11
-40 16 -43 5 -3 9 -13 9 -22 0 -9 7 -30 15 -46 8 -15 15 -36 15 -45 0 -9 6
-25 14 -36 7 -11 17 -35 21 -52 3 -18 11 -33 16 -33 5 0 9 -12 9 -27 0 -16 7
-41 15 -57 8 -15 15 -35 15 -43 0 -8 6 -27 14 -41 8 -15 24 -62 37 -104 13
-43 27 -78 31 -78 4 0 8 -12 8 -27 0 -16 7 -41 15 -56 8 -15 17 -43 21 -63 3
-19 10 -37 15 -40 16 -10 9 -35 -21 -81 -38 -56 -38 -81 3 -135 27 -35 40 -44
70 -46 22 -2 46 3 59 12 33 24 65 20 121 -15 27 -17 59 -35 71 -40 12 -5 44
-23 71 -40 28 -16 61 -35 75 -42 14 -6 31 -17 38 -24 7 -7 20 -13 28 -13 8 0
14 -4 14 -10 0 -5 11 -12 25 -16 14 -3 25 -10 25 -14 0 -4 12 -13 28 -19 15
-6 36 -16 47 -23 11 -7 39 -25 63 -40 24 -16 50 -28 58 -28 7 0 14 -4 14 -9 0
-5 12 -16 28 -24 65 -33 140 -76 182 -104 25 -17 68 -41 95 -54 28 -13 56 -29
62 -36 7 -6 31 -19 53 -29 22 -10 40 -21 40 -25 0 -10 -50 -27 -105 -34 -27
-4 -54 -10 -60 -15 -5 -4 -35 -10 -65 -14 -30 -4 -60 -12 -68 -18 -7 -6 -42
-12 -79 -14 -36 -2 -71 -8 -77 -12 -21 -17 -242 -30 -613 -38 -216 -4 -272 -2
-321 11 -33 8 -92 15 -131 15 -39 0 -71 4 -71 9 0 5 -22 12 -49 16 -28 4 -55
13 -62 21 -6 8 -19 14 -29 14 -10 0 -23 7 -30 15 -7 8 -19 15 -26 15 -8 0 -14
4 -14 9 0 5 -10 13 -21 16 -50 16 -131 101 -165 172 -24 52 -26 63 -22 172 2
90 7 122 21 141 9 13 17 35 17 47 0 13 4 23 9 23 5 0 13 10 16 23 4 12 20 39
36 59 16 20 29 41 29 45 0 5 10 19 23 33 12 14 47 57 77 95 30 39 66 79 79 90
73 62 238 211 248 224 32 41 2 55 -39 19 -13 -13 -53 -48 -88 -78 -36 -30 -76
-66 -91 -80 -14 -14 -44 -41 -65 -61 -44 -40 -81 -82 -105 -119 -9 -14 -25
-35 -35 -47 -11 -11 -25 -29 -32 -40 -7 -10 -28 -40 -47 -67 -19 -27 -35 -54
-35 -59 0 -6 -6 -18 -13 -26 -14 -18 -32 -67 -42 -121 -4 -19 -12 -41 -18 -48
-13 -16 -2 -155 16 -202 31 -79 67 -139 98 -160 11 -8 35 -27 51 -41 17 -14
51 -36 76 -50 26 -13 53 -30 60 -36 7 -7 20 -13 28 -13 9 0 22 -7 30 -15 9 -8
33 -15 54 -15 21 0 51 -7 66 -15 17 -9 56 -15 94 -15 37 0 71 -5 78 -12 35
-35 906 -9 954 29 7 6 44 13 83 16 38 4 71 11 73 17 2 5 29 10 60 10 32 0 70
7 86 15 15 8 40 15 55 15 14 0 40 9 56 20 53 35 105 27 200 -30 46 -27 87 -50
93 -50 6 0 12 -4 14 -8 3 -10 4 -10 162 -91 l106 -55 138 13 c257 22 437 39
582 55 80 9 201 21 270 26 69 6 143 14 165 20 22 5 82 11 134 14 52 3 98 9
104 15 6 6 16 7 28 1 10 -6 27 -6 41 -1 13 5 71 12 131 16 59 4 110 11 113 16
3 5 47 9 97 10 51 0 119 5 152 10 33 5 110 14 170 19 61 6 117 13 125 17 8 4
33 8 55 8 22 1 84 5 138 9 87 7 97 10 97 27 0 11 -6 22 -12 24 -7 3 -76 -2
-153 -10 -77 -9 -198 -20 -270 -25 -71 -6 -146 -14 -165 -19 -19 -5 -82 -13
-140 -17 -58 -3 -112 -10 -122 -15 -9 -5 -76 -11 -149 -14 -72 -3 -139 -10
-148 -14 -9 -5 -68 -11 -131 -15 -63 -4 -146 -14 -185 -22 -38 -7 -106 -14
-151 -14 -45 0 -94 -4 -110 -10 -16 -5 -90 -15 -164 -20 -170 -14 -416 -38
-455 -45 -16 -3 -62 -8 -100 -11 -68 -6 -74 -4 -140 32 -39 21 -99 53 -135 72
-36 18 -87 47 -115 63 -27 16 -60 35 -73 41 -16 8 -22 18 -18 31 4 17 1 19
-27 15 -20 -3 -42 1 -59 11 -15 9 -92 55 -172 104 -79 48 -149 87 -155 87 -6
0 -11 4 -11 8 0 5 -18 16 -40 26 -22 10 -46 23 -53 29 -6 7 -23 18 -37 25 -14
7 -41 22 -60 33 -19 12 -73 43 -120 71 -47 27 -92 54 -100 59 -8 5 -23 12 -32
15 -10 4 -18 10 -18 15 0 5 -5 9 -11 9 -6 0 -48 22 -93 49 -45 27 -117 68
-160 91 -77 40 -80 40 -112 25 -49 -23 -89 -19 -108 10 -22 33 -20 42 10 83
15 18 26 44 26 55 0 23 -23 105 -49 172 -22 58 -27 73 -52 150 -13 39 -29 84
-37 102 -8 17 -14 38 -14 46 0 8 -7 28 -15 43 -8 16 -15 37 -15 46 0 9 -4 19
-9 22 -5 4 -12 24 -16 45 -4 22 -13 45 -21 52 -8 6 -14 23 -14 38 0 14 -7 35
-15 45 -8 11 -15 30 -15 42 0 13 -4 25 -9 28 -5 3 -12 22 -16 43 -4 20 -13 46
-21 57 -8 11 -14 30 -14 41 0 11 -6 29 -14 40 -7 11 -16 31 -19 45 -3 14 -15
50 -27 80 -12 30 -24 66 -27 80 -3 14 -9 30 -13 35 -4 6 -17 39 -30 75 -12 36
-29 79 -36 97 -8 17 -14 38 -14 46 0 9 -4 19 -10 22 -5 3 -10 14 -10 23 0 9
-7 30 -15 46 -8 15 -15 34 -15 41 0 20 -49 125 -58 125 -5 0 -12 -3 -15 -7z"/>
<path d="M4913 6863 c-22 -3 -34 -10 -34 -21 -7 -74 24 -160 63 -179 31 -15
199 -26 218 -13 12 8 13 14 3 41 -15 38 -1 63 29 53 11 -3 30 2 45 11 18 12
35 15 62 10 46 -9 437 -9 451 0 6 4 22 -1 36 -10 13 -8 55 -19 92 -22 37 -3
76 -12 87 -19 11 -8 28 -14 37 -14 10 0 26 -4 36 -10 9 -5 38 -18 64 -30 97
-42 151 -89 191 -167 23 -43 24 -208 2 -249 -8 -16 -15 -36 -15 -45 0 -9 -7
-22 -15 -29 -8 -7 -15 -16 -15 -21 0 -10 -97 -143 -145 -199 -48 -56 -145
-148 -220 -209 -38 -31 -74 -62 -78 -69 -7 -10 -25 -12 -74 -6 -63 6 -66 6
-89 -22 -15 -18 -23 -42 -24 -66 0 -31 6 -41 39 -67 21 -17 48 -31 58 -31 11
0 36 17 56 37 30 29 37 44 37 74 0 31 6 42 27 56 29 19 49 36 126 106 28 26
66 57 82 69 44 31 255 299 255 324 0 6 7 17 15 24 8 7 15 25 15 41 0 15 5 31
10 34 12 8 14 232 1 239 -4 3 -11 19 -14 35 -7 34 -105 141 -129 141 -9 0 -18
7 -22 15 -3 8 -16 15 -29 15 -14 0 -30 7 -37 15 -7 8 -23 15 -36 15 -13 0 -24
4 -24 9 0 5 -19 12 -42 16 -24 4 -49 12 -56 17 -24 20 -151 31 -421 35 -232 3
-280 1 -307 -12 -45 -21 -61 -19 -80 13 -9 16 -30 36 -48 45 -33 17 -129 28
-183 20z m122 -54 c5 -5 19 -9 31 -9 31 0 47 -25 48 -73 l1 -42 -75 3 c-41 2
-80 9 -87 15 -19 20 -42 101 -32 113 10 13 98 7 114 -7z m716 -1189 c25 -14
25 -54 -1 -80 -35 -35 -72 -20 -86 34 -12 47 36 73 87 46z"/>
<path d="M2355 5925 c-27 -24 -53 -45 -56 -45 -3 0 -17 -10 -30 -21 -13 -12
-53 -43 -89 -69 -66 -49 -261 -244 -335 -336 -21 -27 -42 -51 -45 -54 -9 -9
-50 -69 -50 -74 0 -3 -11 -17 -25 -32 -14 -15 -28 -38 -31 -51 -4 -13 -10 -23
-14 -23 -10 0 -50 -76 -50 -94 0 -7 -7 -19 -15 -26 -8 -7 -15 -20 -15 -30 0
-10 -7 -31 -15 -46 -21 -41 -21 -292 0 -320 8 -10 15 -29 15 -42 0 -12 7 -25
15 -28 8 -4 15 -17 15 -30 0 -14 7 -27 15 -30 8 -4 15 -12 15 -18 0 -15 50
-76 62 -76 5 0 15 -6 22 -12 8 -7 24 -20 36 -28 12 -8 28 -20 34 -26 6 -6 23
-17 38 -25 143 -75 173 -89 192 -89 12 0 27 -5 33 -11 6 -6 37 -15 69 -20 155
-22 201 -31 223 -42 34 -17 748 -17 782 0 13 6 67 16 119 22 195 23 230 28
242 38 7 6 40 13 72 17 33 4 64 10 70 15 6 5 36 11 66 15 30 4 59 11 65 15 5
5 35 11 65 14 30 4 56 11 58 17 6 18 34 11 58 -15 49 -53 110 -41 153 28 25
41 19 67 -24 107 -36 33 -94 34 -129 1 -15 -14 -25 -31 -24 -39 4 -23 -52 -50
-102 -51 -25 -1 -54 -7 -65 -15 -11 -7 -49 -16 -85 -20 -35 -4 -69 -11 -75
-15 -5 -5 -33 -11 -62 -14 -28 -3 -60 -10 -70 -16 -10 -5 -52 -14 -93 -20 -41
-6 -124 -19 -185 -28 -88 -14 -178 -17 -450 -17 -326 1 -460 10 -508 35 -9 5
-45 12 -80 16 -34 3 -71 12 -82 19 -11 8 -30 14 -42 14 -13 0 -45 14 -71 30
-27 17 -57 30 -66 30 -9 0 -16 4 -16 9 0 5 -18 18 -41 30 -46 24 -54 31 -113
87 -39 38 -86 115 -86 141 0 7 -7 19 -17 28 -24 24 -24 271 1 306 9 13 16 33
16 45 0 29 93 197 130 234 10 10 50 69 50 75 0 3 8 13 18 23 9 10 62 67 117
127 97 106 176 184 217 215 11 8 32 27 48 41 15 14 43 35 61 47 19 12 45 31
59 44 14 13 42 34 63 48 39 26 45 53 12 58 -12 1 -39 -15 -70 -43z m1722
-1457 c29 -27 29 -39 0 -64 -37 -32 -53 -35 -76 -10 -56 60 16 131 76 74z"/>
<path d="M2404 5557 c-101 -102 -174 -193 -174 -218 0 -5 -4 -9 -9 -9 -5 0
-13 -10 -17 -22 -3 -12 -13 -28 -20 -36 -8 -7 -14 -19 -14 -26 0 -8 -7 -19
-15 -26 -8 -7 -15 -22 -15 -35 0 -12 -7 -37 -16 -55 -18 -35 -16 -158 3 -182
6 -7 13 -25 17 -40 3 -16 11 -28 16 -28 6 0 10 -6 10 -13 0 -8 26 -39 58 -69
62 -60 177 -122 245 -133 23 -4 48 -12 55 -17 12 -10 73 -18 317 -39 129 -11
374 -4 389 12 6 5 37 9 70 9 34 0 94 5 135 10 70 9 75 9 103 -15 35 -29 69
-32 109 -8 55 33 52 117 -5 152 -18 12 -40 21 -48 21 -26 0 -78 -31 -78 -46 0
-8 -10 -25 -22 -38 -21 -21 -35 -24 -147 -30 -68 -4 -131 -11 -141 -16 -21
-11 -436 -10 -468 2 -13 4 -56 11 -95 14 -40 3 -97 12 -127 21 -188 54 -308
142 -342 254 -10 31 -18 76 -18 100 1 57 46 184 77 217 7 7 13 18 13 23 0 5
12 27 28 48 15 21 34 49 42 62 8 13 63 72 123 132 72 70 107 112 103 122 -3 8
-11 15 -18 14 -7 0 -63 -50 -124 -112z m1226 -817 c22 -22 27 -69 8 -88 -20
-20 -55 -14 -83 13 -14 14 -25 29 -25 32 0 9 62 63 72 63 4 0 17 -9 28 -20z"/>
<path d="M5411 4043 c-50 -10 -117 -64 -155 -124 -25 -40 -37 -131 -25 -195
14 -73 38 -111 100 -159 l53 -40 102 0 c69 0 107 4 115 12 14 14 29 119 21
141 -7 19 -47 14 -67 -8 -13 -15 -31 -20 -65 -20 -54 0 -84 25 -115 98 -18 41
-18 45 -2 72 9 15 17 35 17 43 0 51 123 78 170 37 13 -11 31 -20 42 -20 16 0
18 8 18 63 0 88 -8 96 -105 101 -44 3 -91 2 -104 -1z"/>
<path d="M82 3783 l3 -257 130 2 c143 3 197 17 248 63 60 55 67 75 67 187 0
115 -10 146 -64 194 -68 60 -98 68 -248 68 l-138 0 2 -257z m139 174 c-13 -13
-26 -3 -16 12 3 6 11 8 17 5 6 -4 6 -10 -1 -17z m130 -72 c40 -41 51 -83 38
-147 -8 -37 -17 -51 -43 -66 -37 -22 -96 -35 -112 -24 -8 5 -10 49 -6 140 l5
132 42 0 c35 0 48 -6 76 -35z"/>
<path d="M2888 4035 c-6 -7 1 -497 7 -504 13 -12 253 1 297 16 124 44 171 156
137 326 -13 63 -43 98 -121 141 -44 24 -55 26 -181 26 -73 0 -136 -2 -139 -5z
m110 -97 c-6 -18 -28 -21 -28 -4 0 9 7 16 16 16 9 0 14 -5 12 -12z m140 -35
c44 -25 62 -63 62 -127 0 -50 -3 -58 -35 -89 -38 -37 -84 -50 -124 -35 -21 8
-23 12 -16 46 4 20 7 74 6 119 -2 45 0 87 4 93 10 16 70 12 103 -7z"/>
<path d="M739 3992 c-105 -50 -149 -118 -149 -233 0 -82 23 -133 83 -184 124
-107 323 -50 375 106 41 122 -13 246 -133 303 -64 30 -122 33 -176 8z m158
-132 c35 -33 49 -80 39 -133 -7 -35 -35 -65 -85 -92 -28 -14 -34 -14 -63 1
-56 28 -77 62 -78 124 0 48 4 60 33 92 28 32 38 37 77 37 37 1 51 -5 77 -29z"/>
<path d="M3540 3990 c-56 -22 -125 -90 -135 -133 -11 -45 -10 -156 1 -194 11
-40 41 -74 95 -110 37 -25 51 -28 123 -28 74 0 85 3 126 30 24 17 59 50 78 75
34 44 34 45 30 130 -4 72 -9 92 -32 130 -34 54 -71 87 -108 95 -15 4 -30 11
-33 16 -10 15 -96 8 -145 -11z m151 -123 c37 -31 49 -58 49 -110 0 -54 -27
-92 -84 -117 -39 -18 -41 -18 -78 1 -62 32 -101 137 -63 169 8 7 15 17 15 23
0 6 12 21 28 34 36 30 98 30 133 0z"/>
<path d="M7636 3995 c-11 -8 -28 -15 -37 -15 -26 0 -102 -91 -116 -138 -36
-116 8 -231 112 -297 43 -28 178 -28 220 -1 88 57 125 122 125 220 0 35 -7 73
-15 90 -8 15 -15 33 -15 40 0 17 -39 50 -101 85 -62 35 -139 42 -173 16z m150
-141 c30 -33 34 -43 34 -93 -1 -62 -19 -91 -78 -123 -25 -14 -38 -15 -60 -7
-46 18 -81 58 -88 105 -8 53 0 76 38 120 26 29 36 34 75 34 38 0 49 -5 79 -36z"/>
<path d="M8588 3991 c-62 -29 -82 -63 -81 -139 1 -77 11 -89 114 -123 76 -25
95 -46 77 -84 -16 -35 -78 -35 -120 0 -39 33 -55 29 -82 -18 l-21 -38 34 -29
c56 -48 182 -54 236 -12 52 41 66 68 68 131 1 54 -2 64 -27 90 -19 20 -45 32
-87 41 -39 9 -65 20 -74 34 -20 28 -19 33 9 51 24 16 43 12 108 -23 15 -7 48
39 48 68 0 24 -6 33 -27 41 -16 6 -36 15 -45 20 -27 14 -89 9 -130 -10z"/>
<path d="M1118 3988 c-13 -11 -14 -35 -8 -183 4 -93 12 -182 18 -197 15 -37
70 -75 121 -83 72 -12 167 3 201 32 50 42 58 73 63 256 6 187 6 187 -65 187
-68 0 -71 -8 -69 -182 l2 -156 -29 -21 c-17 -11 -35 -21 -41 -21 -23 0 -59 32
-66 57 -8 33 -8 214 1 258 8 44 -15 65 -70 65 -23 0 -49 -6 -58 -12z"/>
<path d="M1606 3987 c-16 -12 -18 -31 -17 -227 0 -126 5 -218 10 -223 6 -6 62
-9 132 -8 127 2 152 10 191 56 38 45 30 128 -17 170 -14 13 -25 26 -25 29 0 3
11 17 25 32 27 29 31 57 15 99 -19 50 -47 63 -150 70 -52 3 -106 8 -120 11
-14 2 -34 -1 -44 -9z m189 -99 c56 -25 16 -92 -52 -86 -36 3 -38 5 -41 42 -5
54 32 72 93 44z m27 -177 c4 -3 10 -18 13 -34 6 -24 3 -29 -29 -42 -47 -20
-79 -19 -106 3 -22 17 -22 20 -6 49 8 17 21 33 28 36 15 6 90 -3 100 -12z"/>
<path d="M3863 3984 c-3 -9 -1 -24 5 -33 7 -9 14 -20 16 -26 1 -5 8 -26 15
-45 14 -40 39 -144 50 -208 5 -24 13 -48 19 -54 7 -7 12 -27 12 -45 0 -26 5
-36 25 -43 27 -10 94 -5 108 9 5 5 15 47 23 92 8 46 19 96 25 111 8 19 8 32
-1 47 -9 17 -7 26 7 46 23 31 35 27 45 -13 5 -18 15 -32 23 -32 8 0 15 -4 15
-10 0 -14 -23 -13 -38 2 -21 21 -25 -19 -8 -90 8 -37 18 -83 21 -102 7 -49 17
-60 56 -65 50 -7 89 3 89 24 0 9 7 26 15 37 8 10 15 35 15 54 0 19 7 46 15 60
8 14 14 39 15 56 0 18 7 45 15 60 8 16 15 41 15 56 0 14 8 39 17 56 26 46 13
62 -50 62 -32 0 -59 -5 -65 -13 -6 -7 -15 -41 -21 -77 -17 -112 -25 -135 -46
-135 -16 0 -21 10 -27 45 -27 171 -29 174 -91 183 -32 5 -40 2 -53 -18 -14
-22 -34 -114 -37 -178 -1 -15 -9 -32 -17 -37 -12 -8 -12 -13 6 -37 19 -26 19
-30 5 -56 -12 -20 -22 -27 -41 -25 -23 3 -25 7 -25 53 0 28 4 56 8 62 5 7 6
32 3 55 -3 24 -9 71 -12 105 -7 70 -11 73 -92 79 -42 3 -54 1 -59 -12z m265
-231 c-4 -22 -22 -20 -26 1 -2 10 3 16 13 16 10 0 15 -7 13 -17z m201 -21 c15
-28 12 -112 -4 -112 -26 0 -45 12 -45 30 0 10 -11 32 -25 48 -30 35 -30 39 -7
45 40 11 72 6 81 -11z"/>
<path d="M4550 3985 c-8 -10 -13 -80 -16 -229 -4 -204 -3 -216 15 -226 25 -13
77 -13 102 1 19 9 19 17 13 112 -6 94 -9 105 -36 136 -16 18 -27 40 -24 47 3
8 0 24 -7 35 -10 16 -9 21 3 29 34 21 73 -3 76 -47 2 -37 23 -77 89 -174 101
-147 92 -139 156 -139 40 0 58 4 62 14 3 8 7 107 8 221 1 153 -2 209 -11 221
-10 11 -28 14 -69 12 l-56 -3 1 -65 c2 -113 16 -210 30 -210 7 0 18 -9 24 -19
14 -26 13 -31 -6 -31 -11 0 -14 -6 -9 -20 7 -23 -4 -26 -27 -7 -21 16 -27 38
-17 65 6 16 5 22 -5 22 -8 0 -33 33 -56 73 -24 39 -63 100 -88 135 -43 61 -44
62 -92 62 -30 0 -52 -6 -60 -15z"/>
<path d="M6609 3971 c-10 -13 -19 -32 -19 -43 0 -11 -6 -29 -12 -41 -7 -12
-18 -40 -24 -62 -6 -22 -26 -78 -43 -125 -68 -179 -64 -160 -36 -170 14 -5 45
-7 69 -4 42 6 45 8 55 50 l11 44 79 0 79 0 12 -37 c17 -51 20 -53 78 -57 69
-5 81 10 53 64 -12 22 -21 48 -21 58 0 9 -7 26 -15 36 -8 11 -15 29 -15 41 0
12 -7 30 -15 41 -8 10 -15 33 -15 50 0 17 -7 37 -15 44 -8 7 -15 25 -15 41 0
16 -9 43 -20 61 -18 31 -22 32 -86 33 -58 0 -68 -2 -85 -24z m111 -124 c0 -24
4 -47 9 -52 13 -15 21 -69 12 -84 -5 -8 -24 -11 -52 -9 l-44 3 2 45 c2 55 37
140 58 140 11 0 15 -11 15 -43z m-130 -182 c0 -8 -7 -15 -15 -15 -16 0 -20 12
-8 23 11 12 23 8 23 -8z m224 6 c3 -4 3 -11 0 -14 -8 -8 -34 3 -34 14 0 11 27
12 34 0z"/>
<path d="M7315 3991 c-10 -17 -13 -445 -2 -458 10 -14 85 -17 103 -5 14 10 14
454 0 464 -16 11 -94 10 -101 -1z"/>
<path d="M7999 3995 c-3 -2 -3 -86 -2 -187 3 -120 0 -198 -8 -226 -10 -36 -10
-46 2 -53 17 -12 106 -6 120 8 7 7 7 45 1 112 -8 91 -12 105 -37 131 -18 19
-25 35 -21 46 3 9 1 23 -5 31 -10 11 -9 18 4 30 27 28 63 4 72 -48 8 -44 42
-107 107 -196 21 -29 38 -56 38 -61 0 -5 10 -18 23 -30 18 -17 36 -22 75 -22
28 0 54 5 58 11 3 6 8 108 9 225 1 162 -1 217 -11 225 -7 5 -36 9 -66 7 l-53
-3 2 -79 c2 -95 18 -174 40 -198 11 -12 14 -27 9 -53 -8 -40 -18 -43 -47 -14
-16 16 -20 29 -15 50 3 16 2 29 -3 29 -7 0 -38 45 -106 159 -24 39 -59 87 -73
99 -15 11 -103 17 -113 7z"/>
<path d="M2026 3983 c-16 -4 -17 -12 -12 -66 10 -87 10 -284 2 -334 -10 -56
-1 -59 156 -53 l123 5 3 35 c5 55 -16 73 -81 74 -30 1 -59 5 -64 9 -4 5 -8 81
-8 170 l0 162 -50 2 c-27 0 -58 -1 -69 -4z"/>
<path d="M2348 3984 c-8 -7 3 -438 10 -446 10 -9 255 -14 270 -5 13 9 16 75 3
95 -10 17 -136 5 -152 -14 -13 -16 -39 -19 -39 -4 0 6 6 10 14 10 11 0 14 11
13 43 l-2 42 65 1 c107 2 100 -1 100 48 0 53 -8 57 -96 49 l-65 -6 3 44 3 44
74 -3 c54 -3 76 0 82 10 13 20 11 74 -4 86 -13 11 -270 16 -279 6z m105 -214
c-7 -25 -19 -34 -28 -20 -7 11 11 40 25 40 5 0 6 -9 3 -20z m-3 -90 c0 -19
-36 -47 -48 -36 -5 5 36 56 45 56 2 0 3 -9 3 -20z"/>
<path d="M5773 3983 l-83 -4 0 -224 0 -223 40 -7 c21 -4 49 -4 61 0 19 6 21
13 17 56 -3 28 -13 58 -23 69 -22 24 -9 43 25 38 25 -3 24 -3 67 -95 l28 -61
63 -4 c34 -2 67 -1 72 0 23 8 6 43 -51 106 -60 65 -61 67 -44 86 10 11 23 20
30 20 30 0 45 36 45 109 0 69 -2 74 -32 102 -18 16 -39 29 -48 29 -8 0 -31 2
-50 3 -19 2 -72 2 -117 0z m125 -110 c16 -23 15 -78 -2 -92 -8 -7 -32 -11 -53
-9 l-38 3 -3 50 c-3 39 1 52 15 63 21 15 63 8 81 -15z m-60 -143 c12 0 22 -5
22 -11 0 -6 -9 -8 -20 -4 -12 4 -27 1 -35 -5 -12 -10 -18 -10 -30 0 -20 16 -8
33 19 26 11 -3 31 -6 44 -6z"/>
<path d="M6110 3760 l0 -231 143 3 142 3 0 50 0 50 -74 0 c-73 0 -74 0 -92 33
-10 17 -18 32 -16 33 34 11 86 13 126 4 37 -8 53 13 49 62 l-3 38 -63 -3 c-69
-4 -92 7 -92 43 0 35 21 45 91 43 l64 -3 9 36 c17 67 13 69 -144 69 l-140 0 0
-230z m120 23 c0 -10 -5 -25 -10 -33 -13 -21 -34 2 -25 29 8 25 35 28 35 4z
m-30 -129 c0 -31 -23 -28 -28 4 -2 15 2 22 12 22 11 0 16 -9 16 -26z"/>
<path d="M6913 3976 c-11 -16 -11 -68 -1 -89 8 -15 17 -17 53 -11 l45 6 2
-178 3 -179 49 -2 c28 -1 56 3 63 9 11 9 13 48 11 177 l-3 166 36 0 c44 0 69
19 69 52 0 58 -6 60 -170 61 -102 0 -153 -4 -157 -12z m167 -115 c-16 -32 -30
-34 -30 -7 0 19 5 26 20 26 17 0 19 -3 10 -19z"/>
</g>
</svg>
